<svg width="24" height="24" viewBox="0 0 24 24" fill="none" xmlns="http://www.w3.org/2000/svg">
<g clip-path="url(#clip0_2_10564)">
<path d="M19 21H5C4.73478 21 4.48043 20.8946 4.29289 20.7071C4.10536 20.5196 4 20.2652 4 20V11H1L11.327 1.61198C11.5111 1.44446 11.7511 1.35162 12 1.35162C12.2489 1.35162 12.4889 1.44446 12.673 1.61198L23 11H20V20C20 20.2652 19.8946 20.5196 19.7071 20.7071C19.5196 20.8946 19.2652 21 19 21ZM13 19H18V9.15698L12 3.70298L6 9.15698V19H11V13H13V19Z" fill="#7B8C8A"/>
</g>
<defs>
<clipPath id="clip0_2_10564">
<rect width="24" height="24" fill="white"/>
</clipPath>
</defs>
</svg>
